<svg xmlns="http://www.w3.org/2000/svg" viewBox="0 0 512 106.54"><path d="M282.88,106.54c-14.68,0-25.73-5-32.86-14.78-6.54-9-9.86-21.9-9.86-38.43s3.32-29.44,9.86-38.42C257.14,5,268.21,0,282.88,0c14.29,0,24.71,4.36,31.85,13.33s10.62,22.31,10.62,40-3.57,31.08-10.62,39.91S297.17,106.54,282.88,106.54ZM437.71,106c-8.86,0-15.72-2.4-21-7.34-5.63-5.19-8.39-12.41-8.39-22s2.71-16.84,8.29-22c5.2-4.88,12-7.25,20.89-7.25,4.92,0,12.17.5,18.31,4.88,6.36,4.54,10.06,12.2,11,22.78a5.78,5.78,0,0,1-5.75,6.29H426.55c1.39,6.08,5.08,9.16,11,9.16,4.2,0,7.46-1.26,9.68-3.74a5.79,5.79,0,0,1,4.3-1.91,5.72,5.72,0,0,1,1.86.31l6.45,2.19a5.79,5.79,0,0,1,2.68,9C457.46,102.72,449.13,106,437.71,106Zm-.86-44c-4.68,0-7.83,2.46-9.63,7.53H448C447,64.54,443.24,62,436.85,62ZM133.7,106c-12.72,0-19.17-5.68-19.17-16.88,0-8.86,4.56-15,13.55-18.12,5.38-1.92,12.91-2.86,23-2.86a6.79,6.79,0,0,0-2.38-5.06c-1.39-1.07-3.83-1.62-7.25-1.62-4.48,0-9.52,1.48-15,4.39a5.8,5.8,0,0,1-7.64-2.08L117.14,61a5.78,5.78,0,0,1,2.65-8.33c8.32-3.56,16.2-5.36,23.45-5.36,10.78,0,18.14,2.31,22.49,7.07,4.12,4.5,4.12,9.63,4.12,12.1V99.24a5.78,5.78,0,0,1-5.78,5.78h-7.48a5.77,5.77,0,0,1-5.43-3.82A31.37,31.37,0,0,1,133.7,106Zm17.46-25.65a55.1,55.1,0,0,0-11.45.85c-4.62,1.08-7,3.23-7,6.39,0,2.91,1.89,4.39,5.63,4.39a17.88,17.88,0,0,0,12.78-5.24ZM85.83,106c-8.73,0-15.4-2.4-20.41-7.34-5.25-5.13-7.82-12.34-7.82-22s2.56-16.9,7.82-22c5-4.88,11.68-7.25,20.41-7.25,12.39,0,20.56,4.22,24.26,12.54a5.77,5.77,0,0,1-3.79,7.94l-6.87,1.82a5.72,5.72,0,0,1-1.48.19,5.79,5.79,0,0,1-5-2.87c-1.41-2.42-3.74-3.6-7.13-3.6-6.42,0-9.54,4.34-9.54,13.26,0,8.72,3.12,13,9.54,13A7.72,7.72,0,0,0,93,85.78,5.76,5.76,0,0,1,97.9,83a5.83,5.83,0,0,1,1.65.24l6.94,2.08a5.77,5.77,0,0,1,3.6,7.94C106.22,101.7,98.06,106,85.83,106Zm93.89-.56a5.78,5.78,0,0,1-5.78-5.78V89.07a5.78,5.78,0,0,1,5.78-5.78h17V30.08l-9.45,7.28a5.81,5.81,0,0,1-3.53,1.2,5.45,5.45,0,0,1-.89-.08A5.75,5.75,0,0,1,179,36.05L173,27.44a5.78,5.78,0,0,1,1.29-7.89L198.43,1.41A5.8,5.8,0,0,1,201.91.25h15A5.78,5.78,0,0,1,222.73,6V83.29h14.06a5.78,5.78,0,0,1,5.78,5.78V99.63a5.78,5.78,0,0,1-5.78,5.78ZM494.55,105c-6.1,0-10.2-1.1-12.55-3.34s-3.47-6.19-3.47-11.83v-26h-5.29A5.78,5.78,0,0,1,467.46,58V54a5.77,5.77,0,0,1,5.78-5.77h5.29v-9.1a5.77,5.77,0,0,1,5.77-5.78h7.14a5.78,5.78,0,0,1,5.78,5.78v9.1h9A5.77,5.77,0,0,1,512,54V58a5.78,5.78,0,0,1-5.78,5.78h-9V85.28c0,3.81,1.65,4.1,2.19,4.19a17.21,17.21,0,0,0,2.19.1h4.15a5.77,5.77,0,0,1,5.77,5.77v3.9a5.77,5.77,0,0,1-5.77,5.78ZM392,105a5.78,5.78,0,0,1-5.78-5.78V73.07c0-2.95-.37-5-1.14-6.39-1.08-1.9-3-2.86-5.72-2.86-2.25,0-4.37,1-6.49,3.14a15.18,15.18,0,0,0-3.53,5.92V99.24a5.78,5.78,0,0,1-5.78,5.78h-7a5.77,5.77,0,0,1-5.77-5.78V54a5.77,5.77,0,0,1,5.77-5.77h7.12a5.77,5.77,0,0,1,5.7,4.86c4-3.8,9.12-5.72,15.26-5.72,6,0,10.62,1.5,14.21,4.58,4.05,3.48,6.1,8.87,6.1,16V99.24a5.77,5.77,0,0,1-5.77,5.78Zm-60.84,0a5.78,5.78,0,0,1-5.78-5.78V91.91a5.78,5.78,0,0,1,5.78-5.78H340a5.78,5.78,0,0,1,5.78,5.78v7.33A5.78,5.78,0,0,1,340,105Zm-289.9,0a5.77,5.77,0,0,1-5.77-5.78V73.07c0-2.95-.38-5-1.15-6.39-1.08-1.9-3-2.86-5.72-2.86-2.25,0-4.37,1-6.48,3.14a15.06,15.06,0,0,0-3.53,5.92V99.24A5.78,5.78,0,0,1,12.82,105h-7A5.78,5.78,0,0,1,0,99.24V54a5.77,5.77,0,0,1,5.78-5.77h7.11A5.78,5.78,0,0,1,18.6,53c4-3.8,9.12-5.72,15.26-5.72,6,0,10.61,1.5,14.21,4.58,4,3.48,6.1,8.87,6.1,16V99.24A5.78,5.78,0,0,1,48.39,105ZM276.5,43.74a5.69,5.69,0,1,0-6.66-4.54A5.7,5.7,0,0,0,276.5,43.74ZM265.91,44a5.69,5.69,0,1,0,.55,8A5.69,5.69,0,0,0,265.91,44Zm40.57-1.31A5.69,5.69,0,1,0,311,49.31,5.69,5.69,0,0,0,306.48,42.65Zm-10.59-.22a5.69,5.69,0,0,0,.55-8h0a5.69,5.69,0,1,0-.55,8Zm-12.52,9.1c-9,0-18.93,10.38-16.06,17.77,2.78,7.14,11.45,4.2,16.06,4.2s13.27,2.94,16.05-4.2C302.29,61.91,292.36,51.53,283.37,51.53Z" style="fill:#fff"/></svg>